<svg width="99" height="46" viewBox="0 0 99 46" fill="none" xmlns="http://www.w3.org/2000/svg">
<path d="M98.4659 46C98.4659 39.9592 97.1924 33.9775 94.7182 28.3966C92.244 22.8156 88.6176 17.7446 84.0459 13.4731C79.4742 9.20159 74.0468 5.81326 68.0736 3.50154C62.1003 1.18982 55.6983 -2.64052e-07 49.2329 0C42.7676 2.64052e-07 36.3655 1.18983 30.3923 3.50154C24.4191 5.81326 18.9917 9.20159 14.42 13.4731C9.84829 17.7446 6.22182 22.8156 3.74763 28.3966C1.27345 33.9775 -5.6522e-07 39.9592 0 46L98.4659 46Z" fill="#FB497B"/>
<ellipse cx="11.5507" cy="11.5507" rx="11.5507" ry="11.5507" transform="matrix(1 0 0 -1 24.7224 38.0938)" fill="white"/>
<ellipse cx="11.5507" cy="11.5507" rx="11.5507" ry="11.5507" transform="matrix(1 0 0 -1 50.2561 38.0938)" fill="white"/>
<ellipse cx="37.3757" cy="29.465" rx="6.54759" ry="6.12321" fill="#1E1E1E"/>
<ellipse cx="60.4524" cy="29.465" rx="6.54759" ry="6.12321" fill="#1E1E1E"/>
</svg>
